# xmcd CD database file
#
# Track frame offsets:
#	150
#	4690
#	10916
#	17579
#	23250
#	48660
#	97674
#	118300
#	131384
#	146536
#	165203
#
# Disc length: 2443 seconds
#
# Revision: 0
# Processed by: cddbd v1.5.1PL0 Copyright (c) Steve Scherf et al.
# Submitted via: CDex 1.51
#
DISCID=7309890b
DTITLE=ZEAMI - Live in Holzhausen
DYEAR=2001
DGENRE=New Age
TTITLE0=Soran-Bushi (Gesang der Fischer aus Hokkaido) 
TTITLE1=Kirschblüten
TTITLE2=Der Sandberg 
TTITLE3=Die rote Libelle 
TTITLE4=Duett für Flöte und Violine 
TTITLE5=aus der Partita E-Dur fiir Violine solo 
TTITLE6=Hi Fu Mi - Das Namenlose 
TTITLE7=Leinen Los (Aufwind) 
TTITLE8=Ryokan
TTITLE9=aus der Suite für Flöte solo, op-57 
TTITLE10=Kaisan-Ki 
EXTD=YEAR: 2001
EXTT0=
EXTT1=
EXTT2=
EXTT3=
EXTT4=
EXTT5=
EXTT6=
EXTT7=
EXTT8=
EXTT9=
EXTT10=
PLAYORDER=
